<svg width="40" height="40" viewBox="0 0 40 40" fill="none" xmlns="http://www.w3.org/2000/svg">
<g clip-path="url(#clip0_114671_1814)">
<path d="M34.2989 0H5.70117C2.55758 0 0 2.55758 0 5.70117V34.2988C0 37.4425 2.55758 40 5.70117 40H34.2988C37.4425 40 40 37.4425 40 34.2989V5.70117C40 2.55758 37.4425 0 34.2989 0ZM37.9688 34.2989C37.9688 35.6606 35.6605 37.7734 34.2988 37.7734H5.70117C4.33945 37.7734 2.1875 35.6605 2.1875 34.2989V5.70117C2.1875 4.33945 4.33945 2.1875 5.70117 2.1875H34.2989C35.6606 2.1875 37.9688 4.33945 37.9688 5.70117V34.2989Z" fill="black"/>
<path d="M19.9609 10.2344C19.4216 10.2344 18.9844 10.9578 18.9844 11.8502V28.1916C18.9844 29.0841 19.4216 29.8074 19.9609 29.8074C20.5003 29.8074 20.9375 29.0841 20.9375 28.1916V11.8502C20.9375 10.9578 20.5003 10.2344 19.9609 10.2344Z" fill="black"/>
<path d="M28.1916 18.9844H11.8502C10.9578 18.9844 10.2344 19.4216 10.2344 19.9609C10.2344 20.5003 10.9578 20.9375 11.8502 20.9375H28.1916C29.0841 20.9375 29.8074 20.5003 29.8074 19.9609C29.8074 19.4216 29.0841 18.9844 28.1916 18.9844Z" fill="black"/>
</g>
<defs>
<clipPath id="clip0_114671_1814">
<rect width="40" height="40" fill="white"/>
</clipPath>
</defs>
</svg>
