<svg width="41" height="41" viewBox="0 0 41 41" fill="none" xmlns="http://www.w3.org/2000/svg">
<path d="M32.1057 5.28788C32.1057 5.28788 32.3154 5.07827 34.8602 7.62299C37.4057 10.1688 37.1961 10.3784 37.1961 10.3784L14.8256 32.749C14.8256 32.749 15.0355 32.5394 12.4897 29.9937C9.94385 27.4486 9.73438 27.6582 9.73438 27.6582L32.1057 5.28788Z" fill="black"/>
<path d="M8.89974 28.4964L6.41211 36.0751L13.9908 33.5871C13.9908 33.5871 14.2004 33.3775 11.6546 30.8326C9.10959 28.2868 8.89974 28.4964 8.89974 28.4964Z" fill="black"/>
<path d="M32.9473 4.44925L34.6242 2.77147C34.6242 2.77147 36.302 1.09368 38.8475 3.63944C41.3934 6.18455 39.715 7.86195 39.715 7.86195L38.0376 9.53978C38.0376 9.53978 38.2473 9.33018 35.7026 6.78435C33.157 4.23964 32.9473 4.44925 32.9473 4.44925Z" fill="black"/>
<path d="M38.423 12.8793C38.0899 13.2012 37.9017 13.6444 37.9017 14.1075V35.4982C37.9017 35.9224 37.9017 38.0463 35.3537 38.0463H6.1229C3.43059 38.0463 3.43059 35.4982 3.43059 35.4982V6.26743C3.43059 3.57512 6.1229 3.57512 6.1229 3.57512H29.921C30.9885 2.64105 30.3279 0.882812 28.9094 0.882812H6.1229C3.15386 0.882812 0.738281 3.2984 0.738281 6.26743V35.4982C0.738281 38.4674 3.15386 40.8828 6.1229 40.8828H35.3537C38.3228 40.8828 40.7383 38.4674 40.7383 35.4982V13.8618C40.7383 12.6561 39.2902 12.0415 38.423 12.8793Z" fill="black"/>
</svg>
