<svg width="143" height="59" viewBox="0 0 143 59" fill="none" xmlns="http://www.w3.org/2000/svg">
<g clip-path="url(#clip0_114649_825)">
<path d="M0 7.89795V23.611L9.39604 16.3874L0 7.89795Z" fill="#131118"/>
<path d="M0 50.1383L9.39604 41.6508L0 34.4326V50.1383Z" fill="#131118"/>
<path d="M17.6191 26.8654L41.2598 7.89746H27.4806L0 29.0226L17.6191 26.8654Z" fill="#131118"/>
<path d="M0 29.0225L27.4806 50.1394H41.2598L17.6191 31.1678L0 29.0225Z" fill="#131118"/>
<path d="M48.6406 9.71959H53.2867V47.9816H48.6406V9.71959ZM68.3182 9.71959H74.0575L57.4955 27.6481L74.8774 47.9816H69.1381L51.8656 27.7574L68.3182 9.71959Z" fill="#131118"/>
<path d="M83.6465 22.838V47.9816H79.2737V22.838H83.6465ZM91.2442 27.6481C90.6612 27.2108 90.1328 26.901 89.6591 26.7188C89.1853 26.5002 88.5841 26.3909 87.8553 26.3909C86.7621 26.3909 85.9058 26.6642 85.2863 27.2108C84.6668 27.7574 84.2295 28.5044 83.9744 29.4518C83.7558 30.3993 83.6465 31.4742 83.6465 32.6768H81.6787C81.6787 30.6726 82.0249 28.9052 82.7173 27.3748C83.4461 25.8078 84.3753 24.5689 85.5049 23.6579C86.6346 22.7469 87.7824 22.2914 88.9485 22.2914C89.8595 22.2914 90.6976 22.4189 91.4628 22.674C92.2645 22.8926 92.9933 23.3481 93.6492 24.0405L91.2442 27.6481Z" fill="#131118"/>
<path d="M98.0097 12.4526C98.0097 11.6145 98.3012 10.9039 98.8842 10.3208C99.5037 9.73781 100.214 9.44629 101.016 9.44629C101.854 9.44629 102.565 9.73781 103.148 10.3208C103.731 10.9039 104.022 11.6145 104.022 12.4526C104.022 13.2543 103.731 13.9648 103.148 14.5843C102.565 15.1674 101.854 15.4589 101.016 15.4589C100.214 15.4589 99.5037 15.1674 98.8842 14.5843C98.3012 13.9648 98.0097 13.2543 98.0097 12.4526ZM98.8296 22.838H103.202V47.9816H98.8296V22.838Z" fill="#131118"/>
<path d="M113.247 40.2745C113.757 41.0397 114.34 41.7503 114.996 42.4062C115.652 43.0622 116.399 43.5905 117.237 43.9914C118.112 44.3558 119.059 44.538 120.079 44.538C121.318 44.538 122.284 44.2647 122.976 43.7181C123.705 43.135 124.07 42.3516 124.07 41.3677C124.07 40.4931 123.778 39.7643 123.195 39.1813C122.648 38.5618 121.938 38.0517 121.063 37.6508C120.189 37.2135 119.26 36.8127 118.276 36.4483C117.182 36.011 116.071 35.5009 114.941 34.9178C113.848 34.2983 112.919 33.5149 112.154 32.5674C111.425 31.5836 111.061 30.3628 111.061 28.9052C111.061 27.4112 111.443 26.1722 112.208 25.1884C113.01 24.2045 114.03 23.4757 115.269 23.002C116.545 22.5282 117.857 22.2914 119.205 22.2914C120.553 22.2914 121.81 22.51 122.976 22.9473C124.179 23.3846 125.236 23.9676 126.147 24.6964C127.058 25.4252 127.768 26.2633 128.278 27.2108L124.78 29.4518C124.088 28.5044 123.213 27.7209 122.157 27.1014C121.136 26.482 119.97 26.1722 118.658 26.1722C117.747 26.1722 116.964 26.3727 116.308 26.7735C115.652 27.1743 115.324 27.7938 115.324 28.6319C115.324 29.2878 115.579 29.8709 116.089 30.381C116.599 30.8912 117.255 31.3467 118.057 31.7475C118.859 32.1484 119.697 32.531 120.571 32.8954C122.029 33.4784 123.359 34.1161 124.562 34.8085C125.764 35.4644 126.712 36.2661 127.404 37.2135C128.133 38.161 128.497 39.3817 128.497 40.8758C128.497 43.0622 127.695 44.8842 126.092 46.3418C124.525 47.7994 122.448 48.5282 119.861 48.5282C118.185 48.5282 116.672 48.2366 115.324 47.6536C113.976 47.0341 112.828 46.2507 111.88 45.3032C110.969 44.3558 110.277 43.3901 109.803 42.4062L113.247 40.2745Z" fill="#131118"/>
<path d="M130.428 22.838H142.999V26.9375H130.428V22.838ZM134.527 14.0924H138.9V47.9816H134.527V14.0924Z" fill="#131118"/>
</g>
<defs>
<clipPath id="clip0_114649_825">
<rect width="143" height="58.1026" fill="white"/>
</clipPath>
</defs>
</svg>
