<svg width="143" height="44" viewBox="0 0 143 44" fill="none" xmlns="http://www.w3.org/2000/svg">
<path d="M0 0.897461V16.6105L9.39604 9.38692L0 0.897461Z" fill="white"/>
<path d="M0 43.1383L9.39604 34.6508L0 27.4326V43.1383Z" fill="white"/>
<path d="M17.6191 19.8654L41.2598 0.897461H27.4806L0 22.0226L17.6191 19.8654Z" fill="white"/>
<path d="M0 22.0225L27.4806 43.1394H41.2598L17.6191 24.1678L0 22.0225Z" fill="white"/>
<path d="M48.6406 2.71959H53.2867V40.9816H48.6406V2.71959ZM68.3182 2.71959H74.0575L57.4955 20.6481L74.8774 40.9816H69.1381L51.8656 20.7574L68.3182 2.71959Z" fill="white"/>
<path d="M83.6465 15.838V40.9816H79.2737V15.838H83.6465ZM91.2442 20.6481C90.6612 20.2108 90.1328 19.901 89.6591 19.7188C89.1853 19.5002 88.5841 19.3909 87.8553 19.3909C86.7621 19.3909 85.9058 19.6642 85.2863 20.2108C84.6668 20.7574 84.2295 21.5044 83.9744 22.4518C83.7558 23.3993 83.6465 24.4742 83.6465 25.6768H81.6787C81.6787 23.6726 82.0249 21.9052 82.7173 20.3748C83.4461 18.8078 84.3753 17.5689 85.5049 16.6579C86.6346 15.7469 87.7824 15.2914 88.9485 15.2914C89.8595 15.2914 90.6976 15.4189 91.4628 15.674C92.2645 15.8926 92.9933 16.3481 93.6492 17.0405L91.2442 20.6481Z" fill="white"/>
<path d="M98.0097 5.45259C98.0097 4.61447 98.3012 3.90389 98.8842 3.32085C99.5037 2.73781 100.214 2.44629 101.016 2.44629C101.854 2.44629 102.565 2.73781 103.148 3.32085C103.731 3.90389 104.022 4.61447 104.022 5.45259C104.022 6.25427 103.731 6.96485 103.148 7.58433C102.565 8.16736 101.854 8.45888 101.016 8.45888C100.214 8.45888 99.5037 8.16736 98.8842 7.58433C98.3012 6.96485 98.0097 6.25427 98.0097 5.45259ZM98.8296 15.838H103.202V40.9816H98.8296V15.838Z" fill="white"/>
<path d="M113.247 33.2745C113.757 34.0397 114.34 34.7503 114.996 35.4062C115.652 36.0622 116.399 36.5905 117.237 36.9914C118.112 37.3558 119.059 37.538 120.079 37.538C121.318 37.538 122.284 37.2647 122.976 36.7181C123.705 36.135 124.07 35.3516 124.07 34.3677C124.07 33.4931 123.778 32.7643 123.195 32.1813C122.648 31.5618 121.938 31.0517 121.063 30.6508C120.189 30.2135 119.26 29.8127 118.276 29.4483C117.182 29.011 116.071 28.5009 114.941 27.9178C113.848 27.2983 112.919 26.5149 112.154 25.5674C111.425 24.5836 111.061 23.3628 111.061 21.9052C111.061 20.4112 111.443 19.1722 112.208 18.1884C113.01 17.2045 114.03 16.4757 115.269 16.002C116.545 15.5282 117.857 15.2914 119.205 15.2914C120.553 15.2914 121.81 15.51 122.976 15.9473C124.179 16.3846 125.236 16.9676 126.147 17.6964C127.058 18.4252 127.768 19.2633 128.278 20.2108L124.78 22.4518C124.088 21.5044 123.213 20.7209 122.157 20.1014C121.136 19.482 119.97 19.1722 118.658 19.1722C117.747 19.1722 116.964 19.3727 116.308 19.7735C115.652 20.1743 115.324 20.7938 115.324 21.6319C115.324 22.2878 115.579 22.8709 116.089 23.381C116.599 23.8912 117.255 24.3467 118.057 24.7475C118.859 25.1484 119.697 25.531 120.571 25.8954C122.029 26.4784 123.359 27.1161 124.562 27.8085C125.764 28.4644 126.712 29.2661 127.404 30.2135C128.133 31.161 128.497 32.3817 128.497 33.8758C128.497 36.0622 127.695 37.8842 126.092 39.3418C124.525 40.7994 122.448 41.5282 119.861 41.5282C118.185 41.5282 116.672 41.2366 115.324 40.6536C113.976 40.0341 112.828 39.2507 111.88 38.3032C110.969 37.3558 110.277 36.3901 109.803 35.4062L113.247 33.2745Z" fill="white"/>
<path d="M130.428 15.838H142.999V19.9375H130.428V15.838ZM134.527 7.09239H138.9V40.9816H134.527V7.09239Z" fill="white"/>
</svg>
