<svg width="22" height="22" viewBox="0 0 22 22" fill="none" xmlns="http://www.w3.org/2000/svg">
<path d="M7.31579 7.14103L7.35296 7.63964L7.62672 7.61924L7.75644 7.3773L7.31579 7.14103ZM14.6836 7.14103L14.2429 7.37723L14.3675 7.60973L14.6298 7.63812L14.6836 7.14103ZM17 14.8333L16.5915 14.545L16.4775 14.7066L16.5048 14.9024L17 14.8333ZM10.9994 19.5L11.1675 19.0291L11.005 18.9711L10.8413 19.0257L10.9994 19.5ZM5 14.8333L5.4894 14.9358L5.53398 14.7228L5.40848 14.545L5 14.8333ZM2.5 7.5L2.46283 7.00138L2.43213 7.00367L2.40194 7.00971L2.5 7.5ZM3 12L3.40848 11.7117L3.40433 11.7058L3.4 11.7L3 12ZM9 4L9.44065 4.23628L9.44404 4.22996L9.44724 4.22355L9 4ZM13 4L12.5526 4.22375L12.5593 4.23621L13 4ZM18 7.5L18.0707 7.00503C18.0651 7.00422 18.0595 7.00351 18.0538 7.0029L18 7.5ZM19 12L19.4085 12.2883L19.4166 12.2769L19.424 12.265L19 12ZM1.55593 7.68881L1.45787 7.19852L1.55593 7.68881ZM5.15173 21.4494L4.9936 20.975L5.15173 21.4494ZM17.7718 20.3648L17.2766 20.4339L17.7718 20.3648ZM16.4451 21.4447L16.277 21.9156L16.4451 21.4447ZM20.6858 9.3027L21.1098 9.5677L20.6858 9.3027ZM10.1052 1.78896L9.65794 1.56541L10.1052 1.78896ZM11.894 1.78874L11.4468 2.01241L11.894 1.78874ZM16.5048 14.9024L17.2766 20.4339L18.267 20.2957L17.4952 14.7642L16.5048 14.9024ZM16.6133 20.9739L11.1675 19.0291L10.8312 19.9709L16.277 21.9156L16.6133 20.9739ZM10.8413 19.0257L4.9936 20.975L5.30985 21.9237L11.1575 19.9743L10.8413 19.0257ZM4.34608 20.3983L5.4894 14.9358L4.5106 14.7309L3.36729 20.1934L4.34608 20.3983ZM1.65399 8.1791L2.59806 7.99029L2.40194 7.00971L1.45787 7.19852L1.65399 8.1791ZM2.53717 7.99862L7.35296 7.63964L7.27862 6.64241L2.46283 7.00138L2.53717 7.99862ZM5.40848 14.545L3.40848 11.7117L2.59152 12.2883L4.59152 15.1217L5.40848 14.545ZM3.4 11.7L1.35205 8.96939L0.552046 9.56939L2.6 12.3L3.4 11.7ZM7.75644 7.3773L9.44065 4.23628L8.55935 3.76372L6.87514 6.90475L7.75644 7.3773ZM9.44724 4.22355L10.5524 2.01252L9.65794 1.56541L8.55276 3.77645L9.44724 4.22355ZM11.4468 2.01241L12.5528 4.22366L13.4472 3.77634L12.3412 1.56508L11.4468 2.01241ZM12.5593 4.23621L14.2429 7.37723L15.1243 6.90482L13.4407 3.76379L12.5593 4.23621ZM14.6298 7.63812L17.9462 7.9971L18.0538 7.0029L14.7374 6.64393L14.6298 7.63812ZM17.9293 7.99497L19.9085 8.27772L20.0499 7.28777L18.0707 7.00503L17.9293 7.99497ZM20.2618 9.0377L18.576 11.735L19.424 12.265L21.1098 9.5677L20.2618 9.0377ZM18.5915 11.7117L16.5915 14.545L17.4085 15.1217L19.4085 12.2883L18.5915 11.7117ZM1.45787 7.19852C0.375699 7.41496 -0.110116 8.68651 0.552046 9.56939L1.35205 8.96939C1.13133 8.6751 1.29326 8.25125 1.65399 8.1791L1.45787 7.19852ZM4.9936 20.975C4.62751 21.0971 4.26702 20.776 4.34608 20.3983L3.36729 20.1934C3.13012 21.3266 4.21157 22.2898 5.30985 21.9237L4.9936 20.975ZM17.2766 20.4339C17.3285 20.8059 16.967 21.1002 16.6133 20.9739L16.277 21.9156C17.3382 22.2946 18.4228 21.4118 18.267 20.2957L17.2766 20.4339ZM19.9085 8.27772C20.2664 8.32885 20.4534 8.73114 20.2618 9.0377L21.1098 9.5677C21.6846 8.64804 21.1236 7.44115 20.0499 7.28777L19.9085 8.27772ZM10.5524 2.01252C10.7366 1.64397 11.2625 1.6439 11.4468 2.01241L12.3412 1.56508C11.7883 0.459578 10.2106 0.45977 9.65794 1.56541L10.5524 2.01252Z" fill="#F59E0B"/>
</svg>
