<svg width="36" height="24" viewBox="0 0 36 24" fill="none" xmlns="http://www.w3.org/2000/svg">
<rect width="36" height="24" rx="2.4" fill="white"/>
<path fill-rule="evenodd" clip-rule="evenodd" d="M6.88083 8.40039L3.59961 15.6616H7.52769L8.01466 14.5039H9.12776L9.61473 15.6616H13.9384V14.778L14.3237 15.6616H16.5603L16.9455 14.7593V15.6616H25.9377L27.0311 14.5339L28.0549 15.6616L32.6735 15.671L29.3819 12.0513L32.6735 8.40039H28.1266L27.0622 9.50723L26.0706 8.40039H16.2883L15.4483 10.2746L14.5886 8.40039H10.6687V9.25395L10.2327 8.40039H6.88083ZM20.3088 9.4315H25.4725L27.0518 11.1375L28.6821 9.4315H30.2614L27.8618 12.0503L30.2614 14.6388H28.6105L27.0311 12.913L25.3926 14.6388H20.3088V9.4315ZM21.5839 11.4615V10.5094H24.8059L26.2118 12.0305L24.7436 13.56H21.5839V12.5216H24.401V11.4615H21.5839ZM7.6409 9.4315H9.55563L11.7321 14.3554V9.4315H13.8296L15.5106 12.9619L17.0599 9.4315H19.1469V14.6419H17.877L17.8666 10.5591L16.0152 14.6419H14.8792L13.0175 10.5591V14.6419H10.405L9.90969 13.4738H7.23387L6.73962 14.6409H5.33987L7.6409 9.4315ZM7.69077 12.394L8.57235 10.3131L9.4529 12.394H7.69077Z" fill="#1F72CD"/>
</svg>
