<svg width="36" height="24" viewBox="0 0 36 24" fill="none" xmlns="http://www.w3.org/2000/svg">
<rect width="36" height="24" rx="2.4" fill="white"/>
<path fill-rule="evenodd" clip-rule="evenodd" d="M16.9536 14.9687V11.9417H18.5159C19.1561 11.9417 19.6964 11.7272 20.1369 11.3041L20.2426 11.1968C21.0473 10.3209 20.9944 8.95639 20.1369 8.14601C19.7082 7.71699 19.1208 7.4846 18.5159 7.49652H16.008V14.9687H16.9536ZM16.9537 11.024V8.41413H18.5397C18.8804 8.41413 19.2035 8.54522 19.4444 8.78357C19.9554 9.28409 19.9672 10.1183 19.4737 10.6367C19.2329 10.8929 18.8922 11.0359 18.5397 11.024H16.9537Z" fill="#3C4043"/>
<path fill-rule="evenodd" clip-rule="evenodd" d="M24.6535 10.2554C24.2482 9.87998 23.6961 9.6893 22.9972 9.6893C22.0986 9.6893 21.4232 10.023 20.9768 10.6844L21.8108 11.2147C22.1162 10.7619 22.5332 10.5354 23.0618 10.5354C23.3966 10.5354 23.7196 10.6606 23.9722 10.887C24.2189 11.1015 24.3598 11.4114 24.3598 11.7391V11.9596C23.9957 11.757 23.5376 11.6497 22.9737 11.6497C22.3159 11.6497 21.7873 11.8046 21.3938 12.1204C21.0003 12.4362 20.8006 12.8533 20.8006 13.3837C20.7889 13.8663 20.9944 14.3251 21.3586 14.635C21.7286 14.9687 22.1984 15.1355 22.7505 15.1355C23.4025 15.1355 23.9193 14.8435 24.3128 14.2596H24.3539V14.9687H25.2584V11.8165C25.2584 11.1551 25.0587 10.6308 24.6535 10.2554ZM22.087 14.0272C21.8932 13.8842 21.7757 13.6518 21.7757 13.4015C21.7757 13.1215 21.9049 12.8891 22.1575 12.7044C22.416 12.5197 22.7391 12.4243 23.1209 12.4243C23.6496 12.4184 24.0608 12.5375 24.3545 12.7759C24.3545 13.1811 24.1959 13.5326 23.8845 13.8306C23.6026 14.1166 23.2207 14.2775 22.8213 14.2775C22.557 14.2834 22.2985 14.194 22.087 14.0272Z" fill="#3C4043"/>
<path d="M27.2906 17.2151L30.4504 9.85615H29.4226L27.9602 13.5267H27.9425L26.4448 9.85615H25.417L27.4903 14.6409L26.3156 17.2151H27.2906Z" fill="#3C4043"/>
<path d="M13.689 11.2862C13.689 10.9942 13.6655 10.7023 13.6185 10.4163H9.63059V12.0668H11.9153C11.8213 12.5971 11.5159 13.0738 11.0695 13.3717V14.4443H12.4321C13.2309 13.6995 13.689 12.5971 13.689 11.2862Z" fill="#4285F4"/>
<path d="M9.63076 15.4811C10.7702 15.4811 11.7332 15.0998 12.4321 14.4443L11.0695 13.3717C10.6878 13.6339 10.2005 13.7829 9.63076 13.7829C8.52658 13.7829 7.59273 13.0261 7.25795 12.0132H5.85424V13.1215C6.57078 14.5694 8.03323 15.4811 9.63076 15.4811Z" fill="#34A853"/>
<path d="M7.25795 12.0132C7.08173 11.4829 7.08189 10.9049 7.25811 10.3686V9.26625H5.85417C5.24913 10.4759 5.24913 11.9059 5.85417 13.1155L7.25795 12.0132Z" fill="#FBBC04"/>
<path d="M9.63076 8.59887C10.2357 8.58695 10.8172 8.81934 11.2518 9.2424L12.4617 8.01492C11.6923 7.28796 10.6821 6.88873 9.63076 6.90065C8.03323 6.90065 6.57071 7.8183 5.85417 9.26625L7.25795 10.3745C7.59273 9.35562 8.52658 8.59887 9.63076 8.59887Z" fill="#EA4335"/>
</svg>
