<svg width="36" height="24" viewBox="0 0 36 24" fill="none" xmlns="http://www.w3.org/2000/svg">
<rect width="36" height="24" rx="2.4" fill="white"/>
<path fill-rule="evenodd" clip-rule="evenodd" d="M23.4896 8.23796C23.4751 8.33222 23.4582 8.42855 23.4394 8.52753C22.7906 11.8723 20.5708 13.0278 17.7358 13.0278H16.2923C15.9455 13.0278 15.6533 13.2805 15.5994 13.6239L14.651 19.664C14.6159 19.8895 14.789 20.0927 15.0155 20.0927H17.5758C17.8789 20.0927 18.1364 19.8716 18.1842 19.5714L18.2093 19.4408L18.6913 16.3694L18.7223 16.2009C18.7695 15.8997 19.0276 15.6784 19.3307 15.6784H19.7136C22.1941 15.6784 24.136 14.6673 24.7035 11.7412C24.9405 10.5189 24.8178 9.49819 24.1905 8.78038C24.0006 8.56397 23.7651 8.3843 23.4896 8.23796Z" fill="#298FC2"/>
<path fill-rule="evenodd" clip-rule="evenodd" d="M22.8106 7.96628C22.7115 7.93722 22.6092 7.91096 22.5043 7.88721C22.3988 7.86405 22.2908 7.84354 22.1796 7.82555C21.7904 7.76241 21.3639 7.73246 20.9071 7.73246H17.0509C16.9558 7.73246 16.8656 7.754 16.785 7.79295C16.607 7.8788 16.475 8.04786 16.4429 8.25482L15.6225 13.4719L15.599 13.624C15.6529 13.2806 15.9452 13.0279 16.2919 13.0279H17.7354C20.5704 13.0279 22.7902 11.8718 23.439 8.52758C23.4584 8.4286 23.4747 8.33227 23.4893 8.238C23.3252 8.15053 23.1474 8.07574 22.956 8.01201C22.9086 7.99622 22.8599 7.98103 22.8106 7.96628Z" fill="#22284F"/>
<path fill-rule="evenodd" clip-rule="evenodd" d="M16.4429 8.25482C16.475 8.04786 16.6072 7.87881 16.7852 7.79355C16.8664 7.75446 16.956 7.73292 17.0511 7.73292H20.9073C21.3641 7.73292 21.7906 7.76301 22.1798 7.82615C22.291 7.844 22.399 7.86465 22.5045 7.88781C22.6094 7.91142 22.7117 7.93782 22.8108 7.96673C22.8601 7.98149 22.9088 7.99683 22.9566 8.01202C23.148 8.07575 23.3259 8.15113 23.4901 8.23802C23.6831 7.00198 23.4884 6.16039 22.8229 5.39832C22.089 4.55925 20.7647 4.2002 19.0699 4.2002H14.1498C13.8037 4.2002 13.5084 4.45289 13.4549 4.7969L11.4056 17.8393C11.3652 18.0973 11.5634 18.3301 11.8226 18.3301H14.86L16.4429 8.25482Z" fill="#28356A"/>
</svg>
