<svg width="36" height="24" viewBox="0 0 36 24" fill="none" xmlns="http://www.w3.org/2000/svg">
<rect width="36" height="24" rx="2.4" fill="white"/>
<path d="M24.3732 7.87013C23.9298 7.69422 23.2265 7.5 22.357 7.5C20.137 7.5 18.5738 8.68378 18.5642 10.3762C18.5458 11.6249 19.6834 12.3184 20.5343 12.7348C21.404 13.1602 21.6997 13.4379 21.6997 13.8172C21.6908 14.3996 20.9969 14.6681 20.3497 14.6681C19.4522 14.6681 18.9713 14.5296 18.2405 14.2056L17.9445 14.0667L17.63 16.0183C18.1572 16.2585 19.1286 16.4716 20.137 16.481C22.4958 16.481 24.0313 15.3155 24.0495 13.5119C24.0585 12.5223 23.4578 11.7639 22.1626 11.1443C21.3764 10.7465 20.8949 10.4782 20.8949 10.0712C20.9041 9.70123 21.3021 9.32225 22.1897 9.32225C22.9205 9.30369 23.4574 9.47935 23.8642 9.65514L24.0675 9.74745L24.3732 7.87013Z" fill="#3362AB"/>
<path d="M16.2242 16.3514H13.9762L15.3823 7.65759H17.6301L16.2242 16.3514Z" fill="#3362AB"/>
<path fill-rule="evenodd" clip-rule="evenodd" d="M30.1357 7.65759H28.3969C27.8607 7.65759 27.4533 7.81469 27.222 8.37892L23.883 16.3513H26.2417C26.2417 16.3513 26.63 15.2783 26.7134 15.0472H29.5996C29.6641 15.3524 29.8678 16.3513 29.8678 16.3513H31.9492L30.1357 7.65759ZM27.3609 13.2715C27.546 12.772 28.2584 10.839 28.2584 10.839C28.2546 10.8465 28.2836 10.7662 28.3268 10.6464L28.3273 10.6449L28.3277 10.644C28.3922 10.4651 28.488 10.1996 28.5541 10.0067L28.7112 10.7558C28.7112 10.7558 29.1369 12.8368 29.2294 13.2715H27.3609Z" fill="#3362AB"/>
<path d="M12.0987 7.65759L9.8972 13.5859L9.65663 12.3836L9.65641 12.3829L8.8704 8.38838C8.74096 7.83313 8.34317 7.67591 7.85294 7.65759H4.23622L4.19922 7.83325C5.08132 8.05882 5.87029 8.38387 6.56158 8.78803L8.56518 16.3422H10.9423L14.4757 7.65759H12.0987Z" fill="#3362AB"/>
</svg>
