<svg width="34" height="34" viewBox="0 0 34 34" fill="none" xmlns="http://www.w3.org/2000/svg">
<path d="M1 8L15.9691 15.5M1 8L8.48453 4.5M1 8V23.8012C1 24.5392 1.40642 25.2172 2.05731 25.5651L15.9691 33M32.0469 8C26.8624 5.74276 19.2777 2.44053 16.7915 1.35806C16.2652 1.12893 15.6712 1.13929 15.1512 1.38244L8.48453 4.5M32.0469 8C32.0469 12.622 32.0469 19.0482 32.0469 22.5261C32.0469 24.044 31.1878 25.4275 29.8288 26.1037L24.008 29M32.0469 8C28.9075 9.46447 24.008 11.75 24.008 11.75M15.9691 15.5V33M15.9691 15.5L24.008 11.75M15.9691 33L24.008 29M24.008 11.75V29M24.008 11.75L8.48453 4.5" stroke="black" stroke-width="2" stroke-linecap="round" stroke-linejoin="round"/>
</svg>
