<svg width="33" height="33" viewBox="0 0 33 33" fill="none" xmlns="http://www.w3.org/2000/svg">
<circle cx="16.5" cy="16.5" r="15.5" fill="white" stroke="black" stroke-width="2"/>
<path d="M16.6173 9.094H18.2153L18.1813 11.848H16.6683L16.6173 9.094ZM16.6683 22.099H18.1643L18.2153 24.904H16.6173L16.6683 22.099ZM19.7283 14.432C19.5583 14.1033 19.3656 13.803 19.1503 13.531C18.9463 13.2477 18.7026 13.021 18.4193 12.851C18.1359 12.681 17.8016 12.596 17.4163 12.596C17.0196 12.596 16.6909 12.6527 16.4303 12.766C16.1809 12.8793 15.9939 13.0437 15.8693 13.259C15.7559 13.463 15.6993 13.7123 15.6993 14.007C15.6993 14.3923 15.8296 14.7097 16.0903 14.959C16.3509 15.2083 16.6909 15.4237 17.1103 15.605C17.5296 15.7863 17.9773 15.9677 18.4533 16.149C18.7933 16.2737 19.1389 16.4323 19.4903 16.625C19.8529 16.8177 20.1816 17.0557 20.4763 17.339C20.7709 17.611 21.0089 17.9453 21.1903 18.342C21.3716 18.7387 21.4623 19.2033 21.4623 19.736C21.4623 20.4273 21.3036 21.0337 20.9863 21.555C20.6689 22.0763 20.2156 22.4787 19.6263 22.762C19.0369 23.034 18.3173 23.17 17.4673 23.17C16.7873 23.17 16.1526 23.034 15.5633 22.762C14.9739 22.4787 14.4583 22.099 14.0163 21.623C13.5743 21.147 13.2286 20.603 12.9793 19.991L14.5263 18.988C14.7756 19.5093 15.0476 19.9513 15.3423 20.314C15.6369 20.6767 15.9599 20.9543 16.3113 21.147C16.6739 21.3397 17.0876 21.436 17.5523 21.436C17.9603 21.436 18.2946 21.3737 18.5553 21.249C18.8273 21.1243 19.0256 20.943 19.1503 20.705C19.2863 20.4557 19.3543 20.161 19.3543 19.821C19.3543 19.379 19.2239 19.022 18.9633 18.75C18.7139 18.4667 18.3853 18.2287 17.9773 18.036C17.5806 17.8433 17.1556 17.662 16.7023 17.492C16.4076 17.39 16.0789 17.254 15.7163 17.084C15.3649 16.9027 15.0306 16.676 14.7133 16.404C14.3959 16.1207 14.1353 15.7807 13.9313 15.384C13.7273 14.9873 13.6253 14.5057 13.6253 13.939C13.6253 13.3837 13.7839 12.8793 14.1013 12.426C14.4299 11.9727 14.8776 11.61 15.4443 11.338C16.0109 11.066 16.6513 10.93 17.3653 10.93C18.0793 10.93 18.6913 11.0547 19.2013 11.304C19.7226 11.5533 20.1533 11.8707 20.4933 12.256C20.8446 12.6413 21.1166 13.0437 21.3093 13.463L19.7283 14.432Z" fill="black"/>
</svg>
