<svg width="33" height="30" viewBox="0 0 33 30" fill="none" xmlns="http://www.w3.org/2000/svg">
<path d="M30.874 16.412V14.3857C30.874 6.30913 24.3786 0 16.0779 0C7.77719 0 1.26887 6.30913 1.26887 14.3857V16.4126C0.47076 17.3863 0 18.8517 0 20.2174V24.1304C0 27.2322 2.7326 30 5.78803 30C10.933 29.0217 10.6114 26.7391 10.933 23.4783V20.8696C10.6114 17.9348 10.2898 15 5.78803 14.3478C5.19573 14.3478 4.36096 14.4828 3.82589 14.6576C3.82589 7.28087 9.38884 2.6087 16.0779 2.6087C22.7348 2.6087 28.317 7.245 28.317 14.6576C27.7819 14.4828 26.9594 14.3478 26.3677 14.3478C22.8306 15.3261 21.5444 16.6304 21.2228 20.8696V23.4783C21.2228 26.6707 21.5444 29.3478 26.3677 30C29.4232 30 32.1557 27.2322 32.1557 24.1304V20.2174C32.1557 18.8517 31.6721 17.3857 30.874 16.412ZM5.78803 16.9565C7.19967 16.9565 7.46656 17.5161 7.71738 17.9348C8.03765 18.4722 8.36049 19.738 8.36049 20.8696V23.4783C8.36049 24.6137 8.03636 25.8796 7.71738 26.413C7.46849 26.8285 7.20224 27.3913 5.78803 27.3913C4.14745 27.3913 2.57246 25.7961 2.57246 24.1304V20.2174C2.57246 18.5517 4.14745 16.9565 5.78803 16.9565ZM29.5833 24.1304C29.5833 25.7961 28.0083 27.3913 26.3677 27.3913C24.9535 27.3913 24.6866 26.5024 24.4384 26.087C24.1187 25.5535 23.7953 24.6137 23.7953 23.4783V20.8696C23.7953 19.738 24.1175 18.7983 24.4384 18.2609C24.6885 17.8422 25.0815 17.2826 26.3677 16.9565C28.0083 16.9565 29.5833 18.5517 29.5833 20.2174V24.1304Z" fill="black"/>
</svg>
